/* XPM */
static char * bomba_xpm[] = {
"13 20 2 1",
" 	c None",
".	c #000000",
".............",
".............",
".............",
".............",
".............",
" ........... ",
" ........... ",
". ......... .",
"  .........  ",
". ......... .",
" ........... ",
"  .........  ",
".  .......  .",
"  . ..... .  ",
"    .....    ",
"             ",
"             ",
"             ",
"             ",
"             "};
