/* XPM */
static char * test_xpm[] = {
"13 20 2 1",
".	c #FFFFFF",
"+	c #000000",
".+++++++++++.",
".+++++++++++.",
".+++++++++++.",
"..+++++++++..",
"..+++++++++..",
"...+++++++...",
"+..+++++++..+",
"....+++++....",
"....+++++....",
".+..+++++..+.",
"....+++++....",
".+...+++...+.",
"..+..+++..+..",
".....+++.....",
".....+++.....",
".....+++.....",
".....+++.....",
"......+......",
"......+......",
"......+......"};
